<svg width="17" height="17" viewBox="0 0 17 17" fill="none" xmlns="http://www.w3.org/2000/svg">
<g clip-path="url(#clip0)">
<path d="M16.9833 4.99805C16.9434 4.09477 16.7974 3.47378 16.5881 2.93568C16.3723 2.3645 16.0402 1.85312 15.6051 1.42801C15.18 0.996288 14.6652 0.660819 14.1006 0.44833C13.5594 0.239083 12.9417 0.0930128 12.0384 0.0531873C11.1284 0.00998882 10.8395 0 8.53143 0C6.22337 0 5.93447 0.00998882 5.02782 0.0498144C4.12455 0.08964 3.50356 0.23584 2.96559 0.444957C2.39428 0.660819 1.8829 0.992916 1.4578 1.42801C1.02607 1.85312 0.690733 2.36787 0.478114 2.93243C0.268868 3.47378 0.122798 4.0914 0.0829723 4.99467C0.039774 5.90469 0.0297852 6.19359 0.0297852 8.50166C0.0297852 10.8097 0.039774 11.0986 0.0795995 12.0053C0.119425 12.9085 0.265625 13.5295 0.474871 14.0676C0.690733 14.6388 1.02607 15.1502 1.4578 15.5753C1.8829 16.007 2.39765 16.3425 2.96221 16.555C3.50356 16.7642 4.12118 16.9103 5.02458 16.9501C5.9311 16.9901 6.22012 16.9999 8.52819 16.9999C10.8362 16.9999 11.1251 16.9901 12.0318 16.9501C12.9351 16.9103 13.5561 16.7642 14.094 16.555C15.2365 16.1133 16.1398 15.21 16.5815 14.0676C16.7906 13.5263 16.9368 12.9085 16.9766 12.0053C17.0165 11.0986 17.0265 10.8097 17.0265 8.50166C17.0265 6.19359 17.0231 5.90469 16.9833 4.99805ZM15.4524 11.9389C15.4158 12.7691 15.2763 13.2174 15.1601 13.5163C14.8745 14.2569 14.2867 14.8447 13.5461 15.1304C13.2472 15.2466 12.7956 15.386 11.9686 15.4225C11.072 15.4624 10.803 15.4723 8.5348 15.4723C6.26656 15.4723 5.99427 15.4624 5.10086 15.4225C4.27062 15.386 3.82229 15.2466 3.5234 15.1304C3.15486 14.9941 2.81939 14.7783 2.54709 14.496C2.26481 14.2203 2.04895 13.8882 1.91274 13.5197C1.79651 13.2208 1.65705 12.7691 1.6206 11.9422C1.58065 11.0456 1.57079 10.7765 1.57079 8.50828C1.57079 6.24003 1.58065 5.96774 1.6206 5.07445C1.65705 4.24421 1.79651 3.79588 1.91274 3.497C2.04895 3.12832 2.26481 2.79298 2.55047 2.52056C2.826 2.23828 3.1581 2.02241 3.52678 1.88633C3.82566 1.7701 4.27736 1.63064 5.10423 1.59406C6.00089 1.55424 6.26994 1.54425 8.53804 1.54425C10.8097 1.54425 11.0786 1.55424 11.972 1.59406C12.8022 1.63064 13.2506 1.7701 13.5494 1.88633C13.918 2.02241 14.2535 2.23828 14.5258 2.52056C14.808 2.79622 15.0239 3.12832 15.1601 3.497C15.2763 3.79588 15.4158 4.24746 15.4524 5.07445C15.4922 5.97111 15.5022 6.24003 15.5022 8.50828C15.5022 10.7765 15.4922 11.0422 15.4524 11.9389Z" fill="#666666"/>
<path d="M8.53136 4.13458C6.12042 4.13458 4.16431 6.09058 4.16431 8.50165C4.16431 10.9127 6.12042 12.8687 8.53136 12.8687C10.9424 12.8687 12.8984 10.9127 12.8984 8.50165C12.8984 6.09058 10.9424 4.13458 8.53136 4.13458ZM8.53136 11.3345C6.96727 11.3345 5.69856 10.0659 5.69856 8.50165C5.69856 6.93742 6.96727 5.66884 8.53136 5.66884C10.0956 5.66884 11.3642 6.93742 11.3642 8.50165C11.3642 10.0659 10.0956 11.3345 8.53136 11.3345Z" fill="#666666"/>
<path d="M14.0909 3.96193C14.0909 4.52494 13.6344 4.98144 13.0713 4.98144C12.5083 4.98144 12.0518 4.52494 12.0518 3.96193C12.0518 3.39879 12.5083 2.94241 13.0713 2.94241C13.6344 2.94241 14.0909 3.39879 14.0909 3.96193Z" fill="#666666"/>
</g>
<defs>
<clipPath id="clip0">
<rect width="17" height="17" fill="white"/>
</clipPath>
</defs>
</svg>
