<svg width="15" height="15" viewBox="0 0 15 15" fill="none" xmlns="http://www.w3.org/2000/svg">
<g clip-path="url(#clip0)">
<path d="M7.51058 0H7.48916C4.89869 0 2.79126 2.10673 2.79126 4.69622C2.79126 6.39362 3.56428 8.63378 5.08885 11.3546C6.21916 13.3717 7.36532 14.9166 7.3768 14.9319C7.4087 14.9748 7.45899 15 7.51227 15C7.51378 15 7.51533 15 7.51684 15C7.57181 14.9984 7.62256 14.9703 7.65305 14.9245C7.66436 14.9074 8.80234 13.1889 9.92497 11.087C11.4402 8.25001 12.2086 6.09979 12.2086 4.69622C12.2084 2.1067 10.101 0 7.51058 0ZM9.67907 4.81098C9.67907 6.01263 8.70149 6.99018 7.49984 6.99018C6.29822 6.99018 5.32063 6.0126 5.32063 4.81098C5.32063 3.60936 6.29822 2.63178 7.49984 2.63178C8.70149 2.63178 9.67907 3.60936 9.67907 4.81098Z" fill="#6453A8"/>
</g>
<defs>
<clipPath id="clip0">
<rect width="15" height="15" fill="white"/>
</clipPath>
</defs>
</svg>
