<svg width="222" height="92" viewBox="0 0 222 92" fill="none" xmlns="http://www.w3.org/2000/svg">
<path d="M26.244 8.84914L26.5116 11.7061C26.5116 12.0034 26.5256 12.301 26.5566 12.5985C26.5857 12.8957 26.6013 13.1933 26.6013 13.4913C26.6594 13.7889 26.6905 14.1016 26.6905 14.4288C26.6905 14.755 26.6905 15.0972 26.6905 15.4551L26.8689 17.5071C26.8689 17.8645 26.8829 18.2375 26.9135 18.6233C26.9429 19.0102 26.9585 19.3816 26.9585 19.7394C27.0167 20.572 27.0613 21.3905 27.0923 22.194C27.121 22.9965 27.1366 23.8155 27.1366 24.6481C27.1955 25.0641 27.2262 25.4818 27.2262 25.8982C27.2262 26.3147 27.2262 26.7615 27.2262 27.2365V28.4852C27.2843 28.7844 27.3154 29.2295 27.3154 29.8251V40.624C27.3154 41.4582 27.2998 42.3214 27.2704 43.2142C27.2401 44.1066 27.1955 44.9686 27.1366 45.8012C27.0768 47.5276 27.0167 49.1492 26.9585 50.6667C26.898 52.183 26.8092 53.6262 26.6905 54.9953L26.5116 56.958L26.3336 58.743L26.0655 61.5993L25.8871 62.5818C25.8871 62.7601 25.8716 62.9097 25.8424 63.0286C25.8118 63.147 25.7979 63.2659 25.7979 63.3844C25.7373 63.5639 25.7086 63.7426 25.7086 63.9209V64.0107C25.6485 64.0107 25.619 63.982 25.619 63.9209C25.619 63.7426 25.5887 63.5639 25.5298 63.3844C25.5298 63.0884 25.4991 62.8212 25.441 62.5818C25.441 62.4629 25.4255 62.3152 25.396 62.1358C25.3657 61.9575 25.3509 61.7788 25.3509 61.5993C25.2314 61.1835 25.1574 60.7376 25.1284 60.2609C25.0977 59.7854 25.053 59.2796 24.9941 58.743C24.9343 58.4471 24.8898 58.1498 24.8603 57.8515C24.83 57.5542 24.816 57.2571 24.816 56.958C24.7555 56.6619 24.7113 56.3488 24.6823 56.0217C24.6512 55.6953 24.6372 55.3822 24.6372 55.0842C24.5173 53.7159 24.4142 52.2587 24.325 50.711C24.2353 49.1631 24.1309 47.5276 24.0122 45.8012C23.9525 44.9686 23.9079 44.1221 23.8785 43.2589C23.8482 42.3956 23.8342 41.518 23.8342 40.624C23.8342 39.7329 23.8187 38.8405 23.7892 37.9477C23.7585 37.0554 23.7446 36.1335 23.7446 35.1805C23.7446 34.2877 23.7446 33.3954 23.7446 32.5026C23.7446 31.6103 23.7736 30.7174 23.8342 29.8251C23.8342 29.35 23.8342 28.9032 23.8342 28.4868C23.8342 28.0703 23.8629 27.6527 23.923 27.2365C23.923 26.7615 23.923 26.3147 23.923 25.8982C23.923 25.4818 23.9525 25.0641 24.0122 24.6481L24.2803 19.7394L24.4587 17.5071C24.5173 17.0907 24.5619 16.7192 24.593 16.3921C24.6217 16.0655 24.6372 15.7231 24.6372 15.3653L25.0837 11.7061L25.619 8.84914V8.22488C24.1309 8.22488 22.6735 8.21088 21.2452 8.18014C19.8173 8.15063 18.4181 8.10591 17.0499 8.04617L8.39071 7.49399L4.90951 7.12707L2.2317 6.75964C1.99312 6.75964 1.79954 6.74412 1.65137 6.71297C1.50201 6.68264 1.3395 6.66711 1.16066 6.66711L0.446501 6.48442C0.208314 6.48442 0.0589492 6.45327 0 6.3918C0.0589492 6.3918 0.118695 6.37668 0.17884 6.34594C0.236992 6.3152 0.326611 6.29968 0.446501 6.29968C0.565196 6.29968 0.683493 6.28416 0.80378 6.25383C0.922078 6.22309 1.04077 6.20757 1.16066 6.20757L2.2317 6.02447L4.90951 5.65744L8.39071 5.29001L17.0499 4.73794C18.6567 4.67973 20.2929 4.63459 21.9589 4.60386C23.6244 4.57434 25.3207 4.55964 27.0474 4.55964H32.1357C32.9681 4.55964 33.7867 4.57434 34.5904 4.60386C35.3938 4.63459 36.2112 4.67973 37.0448 4.73794C40.3172 4.85803 43.2337 5.03716 45.7932 5.27449L47.6676 5.45912C47.9647 5.45912 48.2328 5.47556 48.4714 5.5062C48.7084 5.53735 48.976 5.5832 49.2744 5.64468L51.9526 5.92112C52.4282 6.0456 52.7556 6.10738 52.9344 6.10738C53.1133 6.10738 53.261 6.1222 53.3806 6.15324C53.4996 6.18398 53.6179 6.1995 53.7378 6.1995C53.8565 6.26098 54.0059 6.29131 54.1839 6.29131H54.2732C54.2732 6.35309 54.2429 6.38342 54.1839 6.38342C54.0059 6.38342 53.8565 6.41579 53.7378 6.47717C53.4391 6.47717 53.1714 6.50832 52.9344 6.56939C52.8145 6.56939 52.6664 6.58491 52.4883 6.61523C52.3095 6.64628 52.1306 6.66191 51.9526 6.66191C51.5957 6.78599 51.1938 6.86258 50.7474 6.89362C50.3013 6.92395 49.8101 6.97021 49.2744 7.03169L47.6676 7.21643L45.7932 7.40229C44.5437 7.52473 43.1739 7.634 41.6871 7.72581C40.1986 7.81792 38.6519 7.89492 37.0448 7.95681C33.8902 8.13511 30.5581 8.22488 27.0474 8.22488H26.244V8.84914Z" fill="#191716"/>
<path d="M54.0948 41.4818L55.2555 37.4587C55.4339 37.1615 55.5817 36.8189 55.7016 36.4312C55.8203 36.0442 55.9386 35.6712 56.0577 35.3129L57.0322 33.0783C57.6221 31.5892 58.42 30.0693 59.4241 28.5187L60.1327 27.3567C60.3697 27.1189 60.5174 26.9095 60.5764 26.7312L61.1073 26.1946C61.2845 26.0155 61.4623 25.8368 61.6395 25.6581C61.8163 25.4794 62.0227 25.3003 62.2596 25.1216L62.6142 24.8532L62.7914 24.7638L63.0578 24.5855C63.175 24.5264 63.3088 24.4662 63.4565 24.4064C63.6043 24.3477 63.766 24.2878 63.9437 24.2273C64.4149 24.1088 64.8291 24.049 65.1847 24.049C65.7747 24.1689 66.2184 24.2878 66.514 24.4064C66.868 24.5855 67.1914 24.8244 67.4873 25.1216C67.7228 25.3601 67.9311 25.6581 68.1091 26.0155L68.6449 27.5354C68.6449 27.6555 68.6588 27.7297 68.6898 27.7588C68.7194 27.7896 68.7341 27.8641 68.7341 27.9826L68.8237 28.1613V28.34C68.8237 28.4605 68.8532 28.579 68.9129 28.6978L68.8237 29.1446L68.9129 29.3233V30.0386L69.0022 30.396L68.9129 31.6482C68.9129 32.1256 68.9129 32.5573 68.9129 32.9442C68.9129 33.3324 68.8532 33.7349 68.7341 34.1513C68.6743 34.9867 68.6146 35.7758 68.5561 36.5205C68.4955 37.2664 68.4063 38.0264 68.288 38.8003C68.1681 39.5151 68.0945 40.2009 68.065 40.8559C68.0343 41.5128 67.9896 42.1383 67.9311 42.7335V44.4321L68.0199 45.1473C68.0199 45.2674 68.0789 45.4466 68.1988 45.6839L68.4668 46.0413C68.525 46.0413 68.5851 46.0568 68.6449 46.0865C68.7038 46.1167 68.7926 46.1307 68.9129 46.1307H69.4487C69.5068 46.1307 69.5519 46.1167 69.5824 46.0865C69.6119 46.0568 69.6562 46.0413 69.7163 46.0413C69.835 46.0413 69.9242 46.0118 69.9844 45.952C70.0425 45.952 70.1027 45.9229 70.1624 45.863C70.2811 45.863 70.3707 45.8335 70.4305 45.7733C70.5488 45.7733 70.6675 45.7146 70.7874 45.5945L71.1443 45.4154C71.263 45.4154 71.3821 45.3568 71.5016 45.2371L71.8588 45.058C71.917 45.058 71.9481 45.044 71.9481 45.0134C71.9481 44.9843 71.9775 44.9686 72.0373 44.9686H72.1261L71.9481 45.058C71.8879 45.1178 71.8432 45.1781 71.8138 45.2371C71.7831 45.297 71.7095 45.3568 71.5912 45.4154C71.4709 45.5359 71.4123 45.6249 71.4123 45.6839L71.0555 45.952C70.9351 46.0725 70.8169 46.1754 70.6982 46.2648C70.5783 46.3545 70.4305 46.4594 70.2517 46.5779C70.1317 46.698 69.9533 46.8168 69.7163 46.9353C69.6562 46.9353 69.6267 46.9508 69.6267 46.9803C69.6267 47.0107 69.5964 47.0246 69.5379 47.0246C69.4781 47.0246 69.4176 47.0558 69.3595 47.1144C69.1806 47.1144 69.0607 47.1447 69.0022 47.2038H68.288C68.2282 47.2038 68.1837 47.1898 68.1542 47.1587C68.1231 47.1295 68.0789 47.1144 68.0199 47.1144C67.7328 47.0558 67.4472 46.8767 67.1607 46.5779C66.8736 46.3405 66.7023 46.0725 66.645 45.7733L66.3005 44.7899L65.8707 42.9122C65.8134 42.2572 65.7703 41.5716 65.7424 40.8559C65.7133 40.141 65.6994 39.4258 65.6994 38.7105V34.1513V31.8265L65.6097 30.6645V30.0386C65.55 29.9804 65.5205 29.8906 65.5205 29.7701V29.5024L65.4317 29.4127V28.9659L65.3421 28.8765V28.7868V28.5187L65.0744 27.8034C65.0144 27.8034 64.9849 27.7896 64.9849 27.7588C64.9849 27.7297 64.9546 27.7145 64.896 27.7145C64.7762 27.7743 64.7025 27.8034 64.673 27.8034C64.6419 27.8034 64.5683 27.8641 64.4499 27.9826C64.0923 28.2215 63.8541 28.4293 63.7354 28.6085L62.9324 29.4127L62.3075 30.3066C61.8307 30.9637 61.3993 31.6338 61.0129 32.3183C60.625 33.0045 60.2231 33.7042 59.8077 34.4191L59.2723 35.4027L58.8258 36.4754C58.7055 36.5955 58.6028 36.7439 58.5136 36.9226C58.424 37.1013 58.3486 37.2804 58.2905 37.4587C58.1706 37.6378 58.081 37.8022 58.0224 37.9506C57.9623 38.1001 57.9025 38.2638 57.844 38.4425L56.0585 42.1974C55.7605 42.7938 55.508 43.3451 55.2996 43.8513C55.0905 44.3579 54.8384 44.8502 54.5409 45.3265L54.006 46.6672L53.381 47.8297C53.3209 48.0084 53.2611 48.1731 53.2022 48.3211C53.1424 48.4707 53.0823 48.6048 53.0233 48.7236L52.7561 49.1704V49.7963C52.6959 49.975 52.6362 50.1537 52.5772 50.3329C52.5175 50.5116 52.4884 50.6607 52.4884 50.78C52.4279 50.9584 52.3988 51.1972 52.3988 51.4948C52.339 51.6145 52.3096 51.7334 52.3096 51.8519C52.2498 51.9117 52.2204 51.9727 52.2204 52.0314V51.8519C52.2204 51.7334 52.1893 51.5839 52.1311 51.4051C52.1311 51.1677 52.1004 50.9584 52.0415 50.78V49.7963L51.8635 47.2038C51.6846 46.2508 51.5954 45.1473 51.5954 43.8955L51.5066 39.9619C51.5066 39.2471 51.5066 38.5178 51.5066 37.7719C51.5066 37.0275 51.5352 36.2676 51.5954 35.4921C51.5954 34.7182 51.5954 33.9427 51.5954 33.1677C51.5954 32.3937 51.6535 31.5892 51.7738 30.7542L51.8635 28.34C51.8635 27.9239 51.8774 27.5215 51.9077 27.1329C51.9372 26.746 51.9818 26.3442 52.0415 25.9261L52.3988 21.0986C52.5175 20.2648 52.6222 19.4598 52.711 18.6843C52.8002 17.9112 52.9038 17.1357 53.0233 16.3603C53.0233 15.9438 53.0528 15.5557 53.113 15.1979C53.1711 14.8405 53.2317 14.483 53.2914 14.1256L53.6483 11.9798L53.9164 9.9234L54.3629 8.04621L54.7198 6.34721L54.9878 4.73798C55.1061 4.26169 55.2248 3.8149 55.3447 3.39723C55.463 2.98078 55.5522 2.59221 55.6124 2.23478L55.9692 1.25145L56.148 0.625549C56.148 0.507088 56.162 0.417732 56.1927 0.357479C56.2217 0.298454 56.2372 0.238613 56.2372 0.178463L56.3264 5.34058e-05V0.625549C56.3264 0.746052 56.3404 0.864517 56.3711 0.983387C56.4006 1.10348 56.4153 1.22194 56.4153 1.34081L56.3264 2.23478L56.4153 4.82775V6.43698C56.4743 6.73569 56.4898 7.03337 56.4603 7.33095C56.4292 7.62965 56.4153 7.92724 56.4153 8.22492L56.148 16.5393C56.0879 17.314 56.0585 18.0896 56.0585 18.8634C56.0585 19.6389 55.9987 20.4144 55.8803 21.1879C55.8803 22.0233 55.8493 22.8418 55.7908 23.6464C55.7311 24.4514 55.6418 25.2711 55.5231 26.1053C55.5231 26.5225 55.5079 26.9251 55.4785 27.312C55.4474 27.7005 55.4339 28.1027 55.4339 28.5187C55.3136 28.9962 55.2555 29.3832 55.2555 29.6812V30.9326L54.7198 35.5814C54.5998 36.3569 54.5106 37.1168 54.4521 37.8613C54.3923 38.6072 54.3027 39.3073 54.184 39.9619L54.006 41.5716L54.0948 41.4818Z" fill="#191716"/>
<path d="M86.7646 29.5024L86.675 29.5918L86.7646 29.5024ZM83.1938 34.7772C83.3124 34.7772 83.4014 34.7633 83.4618 34.7322C83.5201 34.7026 83.6096 34.6874 83.7295 34.6874C83.9665 34.5686 84.1756 34.5087 84.3544 34.5087L85.0682 34.2407C85.1869 34.2407 85.4255 34.1816 85.7824 34.0616L87.2999 33.4357C87.5967 33.3172 87.8802 33.1828 88.1483 33.0332C88.416 32.8856 88.698 32.7209 88.9959 32.5418L89.3532 32.2741C89.5902 32.1548 89.7396 32.0359 89.7993 31.9159C90.1566 31.6785 90.4246 31.4691 90.6027 31.29C91.1384 30.7542 91.5539 30.2177 91.8525 29.6811C91.9708 29.4438 92.0896 29.1446 92.2098 28.7867C92.268 28.6084 92.2986 28.34 92.2986 27.9825C92.2986 27.9239 92.284 27.8641 92.2541 27.8034C92.2242 27.7448 92.2098 27.685 92.2098 27.6247L92.0306 27.446C91.9708 27.3874 91.8525 27.298 91.6741 27.1779C91.5539 27.1779 91.4355 27.1484 91.3168 27.0886C91.1974 27.0886 91.0786 27.1189 90.9603 27.1779C90.6617 27.1779 90.3351 27.2669 89.9778 27.446C89.6213 27.5661 89.2636 27.7297 88.9071 27.9379C88.5498 28.1473 88.1934 28.3707 87.8357 28.6084L87.2999 29.0552L86.7646 29.5024L86.2289 30.0386H86.1393L86.0504 30.2177L85.872 30.396C84.6806 31.6482 83.7295 33.1089 83.0149 34.7772H83.1938ZM81.6763 40.4091V41.035L81.5871 41.3924V43.0913C81.6456 43.5692 81.7058 44.016 81.7655 44.4321C81.8245 44.8502 81.9133 45.2674 82.0332 45.6839V45.9519C82.0921 46.0118 82.1224 46.1307 82.1224 46.3098C82.2415 46.5483 82.3011 46.7275 82.3011 46.8463L82.8369 47.9186C83.0739 48.2764 83.283 48.5445 83.4618 48.7236L83.7295 49.081L83.9079 49.1704L84.0864 49.3495L84.8898 49.6176C85.1869 49.7376 85.484 49.7376 85.7824 49.6176C86.3181 49.6176 86.9431 49.4094 87.6564 48.9917C87.7759 48.9917 87.8647 48.9626 87.9253 48.9019C87.983 48.8437 88.044 48.813 88.1037 48.813L88.5498 48.5445L88.9959 48.1871L89.3532 47.9186L89.7105 47.6505L90.1566 47.2931L90.7812 46.6672C91.257 46.2507 91.6741 45.849 92.0306 45.4605C92.3883 45.0736 92.7149 44.7005 93.0124 44.3431L93.8162 43.4487L94.3519 42.8232L94.7096 42.4654C94.7669 42.4068 94.798 42.3465 94.798 42.2867V42.3757L94.53 42.9122C94.53 43.0327 94.4702 43.1512 94.3519 43.27C94.3519 43.3303 94.2922 43.4795 94.1739 43.7172L93.6378 44.7899C93.161 45.6839 92.5663 46.609 91.8525 47.5612L91.228 48.3662L90.8707 48.813C90.8109 48.8732 90.7664 48.9331 90.7361 48.9917C90.7062 49.0515 90.6318 49.1121 90.5135 49.1704L90.1566 49.6176L89.7105 49.975L89.2636 50.4218C89.2039 50.4218 89.1142 50.4824 88.9959 50.6009L88.7279 50.7799L88.461 50.9583L88.1934 51.1374L87.9253 51.3161L87.6564 51.4948L86.9431 51.7633L86.5862 51.9416C86.4659 51.9416 86.3476 51.9727 86.2289 52.0313C85.9903 52.0912 85.7381 52.1363 85.4702 52.165C85.2025 52.1962 84.9188 52.1801 84.6221 52.1203C84.3233 52.1203 84.0418 52.0912 83.7741 52.0313C83.5061 51.9727 83.2232 51.883 82.9261 51.7633L82.5688 51.4948C82.5087 51.4948 82.3602 51.4362 82.1224 51.3161L81.4979 50.7799C81.2593 50.6009 81.0518 50.4078 80.8729 50.1984C80.6945 49.9905 80.516 49.7671 80.3376 49.5278L80.248 49.3495L80.1587 49.1704L79.8911 48.813L79.7126 48.4551L79.5342 48.0977L79.1769 47.2931C79.1769 47.2345 79.1613 47.1742 79.1322 47.1144C79.1016 47.0558 79.0881 46.9959 79.0881 46.9353L78.9092 46.5778C78.7889 46.0413 78.6706 45.5048 78.5524 44.9686C78.432 44.4321 78.3428 43.8955 78.2843 43.359V43.0015C78.2843 42.8831 78.2688 42.8094 78.2393 42.7782C78.209 42.7487 78.1951 42.6749 78.1951 42.5548V40.141C78.2532 39.0097 78.432 37.9059 78.7304 36.8328C78.9092 35.8806 79.2358 34.8075 79.7126 33.6149C80.5451 31.4691 81.7655 29.5918 83.3726 27.9825L83.9976 27.3566L84.2648 27.1779L84.4437 26.9988L84.5325 26.9095H84.6221L85.2471 26.3729C85.3657 26.2544 85.484 26.1651 85.6043 26.1052C85.7226 26.0462 85.8409 25.986 85.9612 25.9261C86.9725 25.2113 87.983 24.7055 88.9959 24.4064C89.5317 24.2272 90.1259 24.1383 90.7812 24.1383C90.8999 24.0793 91.0488 24.0644 91.228 24.0935C91.4064 24.1239 91.5845 24.1383 91.7629 24.1383L92.7447 24.4064C93.2207 24.6452 93.5481 24.8531 93.7278 25.0323C94.0839 25.3897 94.3208 25.6888 94.4416 25.9261C94.5598 26.1052 94.6487 26.2697 94.7096 26.418C94.7669 26.5676 94.8279 26.7311 94.8877 26.9095C94.8877 27.0886 94.9016 27.2669 94.9322 27.446C94.9614 27.6247 94.9773 27.7743 94.9773 27.8928C94.9773 28.4293 94.8566 28.9962 94.62 29.5918C94.5001 29.8906 94.3806 30.143 94.2623 30.3517C94.1428 30.5611 93.9942 30.7846 93.8162 31.0219L92.924 32.095C92.8034 32.1548 92.6252 32.3043 92.3883 32.5418C92.3285 32.5418 92.2389 32.602 92.1202 32.7209L91.8525 32.8996C91.4949 33.1983 91.1384 33.4357 90.7812 33.6149C90.4246 33.7932 90.0972 33.9427 89.7993 34.0616C89.4429 34.1816 89.0856 34.3005 88.7279 34.4191C88.3714 34.539 88.044 34.6288 87.746 34.6874C87.0908 34.8661 86.497 34.9866 85.9612 35.0453C85.4255 35.1051 84.9188 35.1649 84.4437 35.224C84.1449 35.224 83.8638 35.2392 83.5957 35.2687C83.328 35.299 83.1045 35.2842 82.9261 35.224C82.2706 36.7746 81.855 38.5023 81.6763 40.4091Z" fill="#191716"/>
<path d="M160.587 54.8917V54.9814C160.587 55.0413 160.571 55.0704 160.542 55.0704C160.512 55.0704 160.497 55.1011 160.497 55.1602V54.9814L160.587 54.8917ZM161.39 9.47672H161.301C161.241 9.47672 161.181 9.44721 161.123 9.38696C161.123 9.32875 161.062 9.2976 160.943 9.2976L160.766 9.11859C160.705 9.11859 160.676 9.1046 160.676 9.07426C160.676 9.04475 160.645 9.02954 160.587 9.02954C160.526 9.02954 160.482 9.01564 160.453 8.98491C160.422 8.9558 160.378 8.94018 160.319 8.94018C159.902 8.70285 159.426 8.4791 158.89 8.26965C158.355 8.06142 157.7 7.86719 156.927 7.68847L154.427 7.15193C153.95 7.09321 153.475 7.04899 152.999 7.01784C152.523 6.98833 152.017 6.97363 151.482 6.97363C151.421 6.97363 151.361 6.98833 151.303 7.01784C151.243 7.04899 151.183 7.06298 151.124 7.06298H149.875L148.179 7.24129C146.929 7.42041 145.738 7.71911 144.608 8.13525C144.489 8.13525 144.43 8.1663 144.43 8.22503H144.161C144.042 8.34461 143.894 8.40374 143.716 8.40374C143.656 8.46389 143.566 8.49309 143.448 8.49309L143.269 8.58275L142.823 8.85082C142.762 8.85082 142.614 8.91067 142.376 9.02954C142.138 9.14963 141.989 9.20825 141.93 9.20825L141.484 9.47672L141.037 9.74438C139.787 10.401 138.656 11.206 137.646 12.1582C135.443 14.0068 133.508 16.3309 131.843 19.132C131.724 19.2521 131.604 19.4304 131.486 19.6685L130.684 21.2774C130.504 21.5163 130.295 21.8738 130.057 22.3501L129.612 23.5125C129.433 23.8699 129.268 24.2429 129.12 24.6298C128.972 25.0184 128.838 25.4208 128.719 25.8369L128.452 26.373C128.452 26.5521 128.391 26.7616 128.272 26.9989L127.916 28.1614C126.963 31.2614 126.398 34.6289 126.219 38.2639C126.102 39.9932 126.118 41.6917 126.266 43.3591C126.413 45.0286 126.695 46.6378 127.113 48.1872C127.231 48.5446 127.29 48.7541 127.29 48.8131C127.409 49.0517 127.469 49.2603 127.469 49.4386L127.558 49.7071C127.617 49.7672 127.648 49.8566 127.648 49.9751L127.916 50.601L128.095 51.1375C128.213 51.3765 128.272 51.5548 128.272 51.6736L128.452 51.9417L128.54 52.2988L128.808 52.8353C129.462 54.2076 130.295 55.518 131.308 56.7698C133.271 59.0935 135.651 60.7337 138.449 61.6863C139.103 61.9855 139.787 62.1938 140.502 62.3126C141.217 62.4323 141.9 62.5508 142.554 62.6697C142.673 62.6697 142.748 62.6856 142.779 62.7144C142.807 62.7454 142.881 62.7594 143.002 62.7594H143.537C143.656 62.8193 143.834 62.8492 144.072 62.8492H146.483C147.137 62.8492 147.762 62.8193 148.357 62.7594C148.952 62.7004 149.547 62.6106 150.143 62.4909C150.737 62.3725 151.303 62.2377 151.839 62.0893C152.374 61.9405 152.879 61.7761 153.356 61.5974C153.832 61.4179 154.294 61.2257 154.739 61.0162C155.186 60.8076 155.617 60.5841 156.034 60.346C156.689 59.9291 157.343 59.4513 157.998 58.9147C158.593 58.4392 159.038 57.9314 159.337 57.3949L159.605 57.0379L159.784 56.68L159.961 56.4115C160.02 56.2931 160.051 56.1742 160.051 56.0545L160.14 55.9648C160.14 55.9061 160.17 55.8463 160.229 55.7865C160.229 55.6676 160.259 55.6069 160.319 55.6069V55.3385C160.319 55.2807 160.333 55.2499 160.364 55.2499C160.392 55.2499 160.408 55.22 160.408 55.1602V55.6069C160.408 55.7274 160.378 55.8164 160.319 55.875V56.1435C160.199 56.621 159.992 57.0977 159.694 57.5744C159.395 58.2897 159.009 58.886 158.534 59.3615C157.998 60.0189 157.343 60.644 156.57 61.2395C155.796 61.8359 154.904 62.3725 153.891 62.8492C152.879 63.3267 151.763 63.7576 150.545 64.1445C149.324 64.5314 148.029 64.7847 146.662 64.9044C146.541 64.9634 146.363 64.9941 146.125 64.9941C145.888 64.9941 145.708 65.0232 145.59 65.0839H142.286C140.799 65.0232 139.253 64.756 137.646 64.2793C136.811 64.042 136.024 63.7576 135.279 63.4296C134.535 63.1033 133.776 62.7004 133.003 62.2229C132.646 61.9855 132.29 61.7462 131.933 61.5076C131.576 61.2703 131.219 61.0022 130.861 60.703L130.594 60.4346L130.326 60.2562L128.898 58.8262C127.648 57.3949 126.61 55.875 125.784 54.2666L125.523 53.6403L125.349 53.3718C125.349 53.3132 125.334 53.2693 125.306 53.2382C125.277 53.2083 125.263 53.1345 125.263 53.0148L125 52.3885L124.827 52.1204L124.739 51.7634L124.479 51.1375C124.42 51.0789 124.392 50.9585 124.392 50.7801L124.218 50.4219C124.218 50.3636 124.16 50.1539 124.044 49.7964L123.869 49.1705C122.936 45.5946 122.56 41.8999 122.738 38.0847C122.912 34.2113 123.55 30.5752 124.653 27.1781C124.71 26.7616 124.856 26.3443 125.088 25.9262C125.088 25.8078 125.146 25.5688 125.263 25.2114L125.523 24.5856L126.576 22.1718L127.113 20.9199C127.231 20.7408 127.335 20.5485 127.425 20.3388C127.513 20.1305 127.617 19.9366 127.737 19.7575C127.855 19.639 127.973 19.4304 128.095 19.132L128.452 18.5955C128.57 18.3581 128.689 18.179 128.808 18.0589C128.927 17.8216 129.045 17.6429 129.165 17.5228C130.117 16.0332 131.158 14.6614 132.29 13.41C133.419 12.1582 134.639 11.0564 135.95 10.1026C136.604 9.62592 137.258 9.16362 137.913 8.71684C138.568 8.26965 139.253 7.89783 139.967 7.59953L140.413 7.33105C140.531 7.33105 140.71 7.27233 140.949 7.15193C141.185 7.03347 141.364 6.97363 141.484 6.97363L142.02 6.70515C142.138 6.70515 142.317 6.64643 142.554 6.52644C142.673 6.52644 142.762 6.49693 142.823 6.43708H143.002L143.537 6.25796C143.656 6.25796 143.744 6.22844 143.805 6.1686H144.072C145.44 5.81118 146.75 5.60295 148 5.54311C149.251 5.48408 150.441 5.5136 151.571 5.63206C152.7 5.75256 153.727 5.93127 154.65 6.1686C155.573 6.40757 156.421 6.67604 157.195 6.97363C157.552 7.09321 157.878 7.24128 158.176 7.42041C158.473 7.59953 158.77 7.74832 159.069 7.86719L159.784 8.31438L160.408 8.76116C160.467 8.76116 160.512 8.77668 160.542 8.80619C160.571 8.83693 160.616 8.85082 160.676 8.85082C160.676 8.97092 160.734 9.02954 160.854 9.02954L161.123 9.2976L161.301 9.47672H161.39Z" fill="#191716"/>
<path d="M177.546 30.3068C177.426 29.9494 177.306 29.6813 177.188 29.5026C177.009 29.205 176.831 28.9074 176.654 28.6086C176.474 28.311 176.265 28.0131 176.028 27.7147L175.849 27.5355C175.729 27.4167 175.64 27.3568 175.582 27.3568C175.522 27.2379 175.462 27.1642 175.403 27.1331C175.342 27.1044 175.254 27.0297 175.135 26.9096C174.837 26.6723 174.51 26.5227 174.152 26.4629C173.439 26.1653 172.636 26.2251 171.743 26.6416C171.505 26.7018 171.281 26.7912 171.074 26.9096C170.865 27.0297 170.642 27.1486 170.404 27.2671L169.244 28.2504L168.886 28.5189L168.619 28.7869L168.083 29.4128C167.726 29.7703 167.369 30.2179 167.012 30.7544C166.357 31.5893 165.732 32.6317 165.138 33.8831C164.84 34.4192 164.572 34.9868 164.335 35.5816C164.095 36.178 163.887 36.8039 163.709 37.4589C163.65 37.5191 163.619 37.6687 163.619 37.9061L163.442 38.3528C163.442 38.4734 163.427 38.5623 163.397 38.6213C163.365 38.6816 163.352 38.7709 163.352 38.8894C163.292 38.9492 163.263 39.0988 163.263 39.3362C163.143 39.6354 163.069 39.9621 163.04 40.3203C163.01 40.6777 162.965 41.0057 162.906 41.3036V43.2702C162.906 43.5694 162.92 43.8957 162.95 44.2535C162.979 44.6114 163.024 44.9397 163.084 45.2373L163.352 46.1308C163.352 46.2509 163.382 46.3407 163.442 46.3989V46.6674L163.531 46.8465L163.619 46.9354V47.0248L163.709 47.2039V47.2933H163.799V47.383L163.887 47.5613C163.947 47.6216 163.977 47.6814 163.977 47.7405C164.214 47.9794 164.364 48.1577 164.423 48.2766C164.781 48.5758 165.167 48.7541 165.584 48.8131H166.298L167.012 48.6344C167.488 48.4553 167.994 48.1577 168.53 47.7405C169.005 47.4429 169.48 46.9961 169.958 46.3989C170.136 46.2206 170.344 45.9521 170.583 45.5947L170.939 45.2373L171.119 44.9688L171.208 44.7901C171.444 44.4921 171.653 44.1798 171.833 43.8515C172.011 43.5244 172.19 43.2116 172.368 42.9124C172.725 42.2574 173.083 41.6019 173.439 40.9458C173.797 40.2908 174.123 39.6354 174.421 38.9788L175.314 36.9227C175.492 36.6252 175.655 36.2972 175.805 35.939C175.952 35.5816 176.087 35.2549 176.206 34.9557L177.813 31.0221L177.546 30.3068ZM178.705 28.8767L179.063 27.893L179.509 26.9096L179.777 26.3731C179.777 26.3149 179.791 26.2698 179.822 26.2391C179.85 26.21 179.867 26.1653 179.867 26.1054C179.867 26.0464 179.881 26.0157 179.911 26.0157C179.94 26.0157 179.955 25.9861 179.955 25.9263L180.045 25.8369V25.7473L180.135 25.6582L180.312 25.4795C180.371 25.4209 180.431 25.3602 180.491 25.3005C180.55 25.2418 180.728 25.1524 181.027 25.0324C181.324 24.9135 181.681 24.9733 182.098 25.2115C182.514 25.45 182.692 25.6287 182.634 25.7473C182.752 25.9263 182.797 26.0313 182.768 26.0604C182.736 26.0915 182.752 26.1653 182.812 26.2837V27.0887C182.812 27.2088 182.797 27.2982 182.768 27.3568C182.736 27.4167 182.723 27.506 182.723 27.6249L182.454 29.592L181.92 33.4359C181.859 34.0924 181.799 34.7028 181.741 35.2689C181.681 35.8358 181.591 36.4169 181.473 37.0121L181.204 40.2306C181.145 40.7671 181.1 41.2741 181.072 41.7504C181.04 42.2278 181.027 42.7046 181.027 43.1808C180.967 44.1347 180.967 44.9995 181.027 45.7734L181.294 46.7567C181.294 46.8768 181.353 46.9961 181.473 47.1146C181.532 47.1744 181.591 47.2039 181.652 47.2039C181.77 47.2039 181.889 47.1744 182.009 47.1146C182.127 46.9961 182.217 46.9354 182.276 46.9354C182.394 46.817 182.499 46.7121 182.589 46.6231C182.679 46.5334 182.781 46.43 182.901 46.3099C183.199 46.012 183.466 45.684 183.705 45.3266C183.824 45.2078 183.913 45.0893 183.972 44.9688C184.031 44.8503 184.121 44.731 184.24 44.6114L184.33 44.5216C184.269 44.5818 184.24 44.6417 184.24 44.7007L183.883 45.4156L183.258 46.578L182.723 47.2933L182.276 47.6507C182.098 47.8298 181.92 47.9188 181.741 47.9188H181.294C181.175 47.9188 181.057 47.8606 180.937 47.7405L180.67 47.472L180.491 47.2039C180.371 46.9666 180.282 46.7567 180.223 46.578C180.163 46.3989 180.103 46.1911 180.045 45.9521L179.777 44.7007L179.598 43.2702C179.478 42.2574 179.42 41.229 179.42 40.1858C179.42 39.1439 179.42 38.0266 179.42 36.833C179.42 36.6547 179.434 36.4912 179.464 36.3416C179.494 36.1936 179.509 36.0288 179.509 35.8496C179.389 35.9701 179.331 36.0886 179.331 36.2075L178.527 38.2639L177.546 40.4093C177.247 41.1245 176.92 41.8401 176.564 42.5549C176.206 43.2702 175.849 43.9851 175.492 44.7007L174.152 46.7567L173.797 47.2933L173.439 47.7405L172.636 48.8131C172.337 49.1123 172.024 49.4095 171.698 49.7071C171.371 50.0062 171.029 50.3034 170.671 50.6011L170.136 50.9585L169.779 51.1375C169.659 51.2576 169.57 51.3162 169.512 51.3162L169.154 51.495C169.035 51.6146 168.945 51.6737 168.886 51.6737L168.172 51.9417C167.935 52.0614 167.695 52.1365 167.458 52.1652C167.221 52.1963 166.953 52.241 166.655 52.2989C166.12 52.4197 165.584 52.4197 165.049 52.2989C164.453 52.1803 163.947 52.0016 163.531 51.7634C162.995 51.465 162.518 51.1679 162.102 50.8695C161.686 50.5117 161.358 50.0956 161.12 49.6178L160.942 49.3497L160.764 48.9919C160.764 48.9332 160.748 48.9021 160.719 48.9021C160.688 48.9021 160.675 48.8734 160.675 48.8131L160.496 48.4553V48.2766L160.406 48.1872V48.0979L160.318 48.0085L160.228 47.6507L160.138 47.383C160.138 47.2039 160.108 47.085 160.049 47.0248C159.929 46.5485 159.871 46.1308 159.871 45.7734C159.632 44.2244 159.603 42.6148 159.782 40.9458L160.228 38.6213C160.346 38.2639 160.465 37.9061 160.585 37.5486C160.704 37.1908 160.822 36.833 160.942 36.4756L161.745 34.5089L162.727 32.5419C164.214 30.0387 165.941 28.0721 167.904 26.6416C168.202 26.4042 168.47 26.21 168.708 26.0604C168.945 25.9124 169.213 25.7783 169.512 25.6582C169.809 25.4795 170.092 25.3455 170.36 25.2558C170.626 25.1664 170.909 25.0631 171.208 24.9431C171.505 24.8844 171.802 24.8393 172.101 24.809C172.398 24.7795 172.694 24.764 172.993 24.764H173.439C173.498 24.8245 173.618 24.8533 173.797 24.8533L174.242 25.0324C174.301 25.0324 174.361 25.048 174.421 25.0771C174.48 25.1078 174.539 25.1218 174.6 25.1218C175.193 25.4209 175.64 25.7185 175.938 26.0157C176.175 26.2546 176.324 26.4333 176.385 26.5522L176.654 26.8203L176.831 27.0887C177.306 27.8036 177.635 28.5189 177.813 29.2345L178.081 30.1285V30.3962L178.705 28.8767Z" fill="#191716"/>
<path d="M191.561 25.9262C191.561 26.1054 191.59 26.2546 191.651 26.373C191.651 26.4333 191.664 26.4931 191.695 26.5521C191.724 26.612 191.739 26.6722 191.739 26.7313L191.828 27.0887L191.917 27.5355L192.185 29.1447C192.185 29.5624 192.244 30.0694 192.364 30.6646C192.364 30.9638 192.378 31.2319 192.409 31.4692C192.438 31.7082 192.483 31.9762 192.543 32.2742V33.2575L192.9 32.2742L193.792 30.2178C193.91 29.9198 194.06 29.5919 194.239 29.2345C194.417 28.8766 194.625 28.5495 194.864 28.2503L195.577 27.3568C195.756 27.0592 196.024 26.7616 196.381 26.4628L197.363 25.6582C197.778 25.4208 198.196 25.2712 198.613 25.2114H199.952C200.13 25.3315 200.322 25.4208 200.532 25.4795C200.74 25.5393 200.934 25.6287 201.112 25.7472C201.647 26.0463 202.184 26.5226 202.719 27.178C203.194 27.7146 203.611 28.311 203.969 28.966L202.361 27.6248L201.468 27.0887C201.23 26.9698 200.934 26.8509 200.576 26.7313C200.219 26.612 199.952 26.5521 199.772 26.5521C199.595 26.5521 199.327 26.612 198.969 26.7313L198.345 27.178L197.809 27.7146L197.273 28.5188L196.827 29.3234C196.707 29.6222 196.604 29.9353 196.514 30.2624C196.426 30.5907 196.321 30.9031 196.201 31.2011C196.082 31.5002 195.979 31.8126 195.89 32.1397C195.801 32.468 195.696 32.7808 195.577 33.0784C195.518 33.4358 195.457 33.7793 195.399 34.1064C195.339 34.4347 195.25 34.7478 195.132 35.0454L194.774 37.1014C194.714 37.4006 194.67 37.7273 194.64 38.0847C194.61 38.4426 194.536 38.8004 194.417 39.1578L194.15 41.1245L193.882 43.1808L193.702 45.2372C193.643 45.5946 193.598 45.9381 193.569 46.2649C193.538 46.5935 193.524 46.9354 193.524 47.2932C193.465 47.6506 193.42 47.9945 193.391 48.3212C193.36 48.6495 193.346 48.9918 193.346 49.3496C193.286 49.5882 193.257 49.9164 193.257 50.333L193.167 50.8694V51.3162H189.686V50.1538V49.8862V49.7071C189.686 49.4095 189.7 49.141 189.731 48.902C189.76 48.6647 189.776 48.3966 189.776 48.0978C189.776 47.5613 189.789 47.0403 189.82 46.5333C189.849 46.0274 189.894 45.5049 189.954 44.9687C189.954 44.6711 189.954 44.4031 189.954 44.1641C189.954 43.9268 189.984 43.6583 190.043 43.3591L190.132 41.7504L190.221 40.2305L190.401 38.6213C190.401 38.3237 190.415 38.0556 190.444 37.8171C190.474 37.5789 190.489 37.3108 190.489 37.012L190.668 35.4922L190.757 33.883C190.816 33.5854 190.86 33.3173 190.891 33.0784C190.921 32.841 190.935 32.5725 190.935 32.2742L191.293 29.1447L191.383 28.3401V27.5355L191.471 27.178V26.373C191.471 26.1947 191.501 26.0463 191.561 25.9262Z" fill="#191716"/>
<path d="M213.787 29.5024L213.699 29.5918L213.787 29.5024ZM210.216 34.7772C210.336 34.7772 210.424 34.7633 210.484 34.7322C210.543 34.7026 210.632 34.6874 210.752 34.6874C210.988 34.5686 211.198 34.5087 211.377 34.5087L212.091 34.2407C212.21 34.2407 212.448 34.1816 212.805 34.0616L214.323 33.4357C214.619 33.3172 214.903 33.1828 215.171 33.0332C215.439 32.8856 215.721 32.7209 216.018 32.5418L216.376 32.2741C216.613 32.1548 216.763 32.0359 216.822 31.9159C217.18 31.6785 217.447 31.4691 217.625 31.29C218.162 30.7542 218.577 30.2177 218.875 29.6811C218.994 29.4438 219.112 29.1446 219.232 28.7867C219.29 28.6084 219.321 28.34 219.321 27.9825C219.321 27.9239 219.307 27.8641 219.276 27.8034C219.247 27.7448 219.232 27.685 219.232 27.6247L219.054 27.446C218.994 27.3874 218.875 27.298 218.697 27.1779C218.577 27.1779 218.458 27.1484 218.339 27.0886C218.22 27.0886 218.101 27.1189 217.983 27.1779C217.684 27.1779 217.358 27.2669 217 27.446C216.643 27.5661 216.286 27.7297 215.93 27.9379C215.573 28.1473 215.216 28.3707 214.858 28.6084L214.323 29.0552L213.787 29.5024L213.251 30.0386H213.162L213.073 30.2177L212.895 30.396C211.704 31.6482 210.752 33.1089 210.038 34.7772H210.216ZM208.698 40.4091V41.035L208.609 41.3924V43.0913C208.669 43.5692 208.729 44.016 208.788 44.4321C208.847 44.8502 208.937 45.2674 209.056 45.6839V45.9519C209.115 46.0118 209.146 46.1307 209.146 46.3098C209.264 46.5483 209.324 46.7275 209.324 46.8463L209.86 47.9186C210.096 48.2764 210.305 48.5445 210.484 48.7236L210.752 49.081L210.931 49.1704L211.11 49.3495L211.913 49.6176C212.21 49.7376 212.507 49.7376 212.805 49.6176C213.341 49.6176 213.966 49.4094 214.681 48.9917C214.799 48.9917 214.888 48.9626 214.948 48.9019C215.006 48.8437 215.066 48.813 215.126 48.813L215.573 48.5445L216.018 48.1871L216.376 47.9186L216.733 47.6505L217.18 47.2931L217.804 46.6672C218.28 46.2507 218.697 45.849 219.054 45.4605C219.411 45.0736 219.737 44.7005 220.035 44.3431L220.839 43.4487L221.375 42.8232L221.733 42.4654C221.79 42.4068 221.82 42.3465 221.82 42.2867V42.3757L221.553 42.9122C221.553 43.0327 221.493 43.1512 221.375 43.27C221.375 43.3303 221.314 43.4795 221.196 43.7172L220.661 44.7899C220.184 45.6839 219.589 46.609 218.875 47.5612L218.25 48.3662L217.893 48.813C217.833 48.8732 217.788 48.9331 217.759 48.9917C217.729 49.0515 217.655 49.1121 217.536 49.1704L217.18 49.6176L216.733 49.975L216.286 50.4218C216.226 50.4218 216.137 50.4824 216.018 50.6009L215.75 50.7799L215.484 50.9583L215.216 51.1374L214.948 51.3161L214.681 51.4948L213.966 51.7633L213.609 51.9416C213.49 51.9416 213.369 51.9727 213.251 52.0313C213.013 52.0912 212.76 52.1363 212.492 52.165C212.224 52.1962 211.942 52.1801 211.645 52.1203C211.346 52.1203 211.065 52.0912 210.797 52.0313C210.528 51.9727 210.246 51.883 209.949 51.7633L209.591 51.4948C209.532 51.4948 209.382 51.4362 209.146 51.3161L208.521 50.7799C208.282 50.6009 208.074 50.4078 207.896 50.1984C207.716 49.9905 207.539 49.7671 207.36 49.5278L207.271 49.3495L207.182 49.1704L206.914 48.813L206.735 48.4551L206.557 48.0977L206.199 47.2931C206.199 47.2345 206.184 47.1742 206.155 47.1144C206.125 47.0558 206.11 46.9959 206.11 46.9353L205.932 46.5778C205.812 46.0413 205.693 45.5048 205.575 44.9686C205.455 44.4321 205.366 43.8955 205.307 43.359V43.0015C205.307 42.8831 205.291 42.8094 205.262 42.7782C205.231 42.7487 205.217 42.6749 205.217 42.5548V40.141C205.276 39.0097 205.455 37.9059 205.753 36.8328C205.932 35.8806 206.258 34.8075 206.735 33.6149C207.568 31.4691 208.788 29.5918 210.395 27.9825L211.02 27.3566L211.287 27.1779L211.466 26.9988L211.555 26.9095H211.645L212.269 26.3729C212.387 26.2544 212.507 26.1651 212.627 26.1052C212.745 26.0462 212.863 25.986 212.983 25.9261C213.995 25.2113 215.006 24.7055 216.018 24.4064C216.554 24.2272 217.148 24.1383 217.804 24.1383C217.922 24.0793 218.072 24.0644 218.25 24.0935C218.429 24.1239 218.607 24.1383 218.786 24.1383L219.768 24.4064C220.244 24.6452 220.571 24.8531 220.751 25.0323C221.106 25.3897 221.344 25.6888 221.464 25.9261C221.583 26.1052 221.671 26.2697 221.733 26.418C221.79 26.5676 221.851 26.7311 221.91 26.9095C221.91 27.0886 221.924 27.2669 221.955 27.446C221.984 27.6247 222 27.7743 222 27.8928C222 28.4293 221.879 28.9962 221.643 29.5918C221.522 29.8906 221.403 30.143 221.285 30.3517C221.166 30.5611 221.017 30.7846 220.839 31.0219L219.947 32.095C219.826 32.1548 219.648 32.3043 219.411 32.5418C219.352 32.5418 219.262 32.602 219.143 32.7209L218.875 32.8996C218.518 33.1983 218.162 33.4357 217.804 33.6149C217.447 33.7932 217.12 33.9427 216.822 34.0616C216.466 34.1816 216.108 34.3005 215.75 34.4191C215.394 34.539 215.066 34.6288 214.768 34.6874C214.114 34.8661 213.519 34.9866 212.983 35.0453C212.448 35.1051 211.942 35.1649 211.466 35.224C211.168 35.224 210.886 35.2392 210.618 35.2687C210.35 35.299 210.128 35.2842 209.949 35.224C209.293 36.7746 208.878 38.5023 208.698 40.4091Z" fill="#191716"/>
<path d="M35.8659 90.4239C35.3318 90.9705 34.344 91.3115 33.3554 91.3115C30.9704 91.3115 29.3237 89.6959 29.3237 87.2167C29.3237 84.9297 30.7999 83.1207 33.2873 83.1207C34.3098 83.1207 35.139 83.4051 35.7066 83.8946L35.2641 84.6226C34.7411 84.2356 34.1277 84.0314 33.2989 84.0314C31.5722 84.0314 30.3458 85.3278 30.3458 87.2167C30.3458 89.1155 31.6064 90.4008 33.4466 90.4008C34.2074 90.4008 34.9343 90.1395 35.4795 89.6959L35.8659 90.4239Z" fill="#191716"/>
<path d="M47.9312 90.4008C49.7488 90.4008 50.964 89.0138 50.964 87.2167C50.964 85.3618 49.6352 84.0314 47.9312 84.0314C46.205 84.0314 44.899 85.3618 44.899 87.2167C44.899 89.0246 46.2277 90.4008 47.9312 90.4008ZM47.9312 83.1207C50.2371 83.1207 51.9864 84.7933 51.9864 87.2167C51.9864 89.5822 50.2371 91.3115 47.9312 91.3115C45.6259 91.3115 43.877 89.6389 43.877 87.2167C43.877 84.907 45.5689 83.1207 47.9312 83.1207Z" fill="#191716"/>
<path d="M60.4167 85.203C60.4167 84.0541 61.303 83.1207 62.8137 83.1207C63.7338 83.1207 64.5511 83.451 65.0056 83.9516L64.483 84.6796C64.0628 84.2588 63.5629 84.0314 62.8703 84.0314C61.9844 84.0314 61.4396 84.4969 61.4396 85.203C61.4396 87.1708 65.3235 86.4316 65.3235 89.1502C65.3235 90.4579 64.1764 91.3115 62.7341 91.3115C61.757 91.3115 60.6214 90.8675 60.2244 90.1168L60.7804 89.4574C61.2464 90.0717 62.0753 90.4008 62.7452 90.4008C63.5745 90.4008 64.3014 89.9692 64.3014 89.1614C64.3014 87.2167 60.4167 87.8418 60.4167 85.203Z" fill="#191716"/>
<path d="M74.187 83.2343H75.1641L78.1513 87.3184L81.0136 83.2343H81.9332V91.1978H80.9678V84.7594L78.1513 88.7174H78.0031L75.1524 84.7933V91.1978H74.187V83.2343Z" fill="#191716"/>
<path d="M91.4226 83.2343H95.9083V84.1451H92.3873V86.7161H95.5677V87.6256H92.3873V90.2871H96.0218V91.1978H91.4226V83.2343Z" fill="#191716"/>
<path d="M103.976 83.2343H110.506V84.1451H107.723V91.1978H106.758V84.1451H103.976V83.2343Z" fill="#191716"/>
<path d="M119.141 83.2343H120.107V91.1978H119.141V83.2343Z" fill="#191716"/>
<path d="M135.739 90.4239C135.204 90.9705 134.216 91.3115 133.229 91.3115C130.843 91.3115 129.197 89.6959 129.197 87.2167C129.197 84.9297 130.673 83.1207 133.16 83.1207C134.183 83.1207 135.012 83.4051 135.58 83.8946L135.137 84.6226C134.614 84.2356 134.001 84.0314 133.171 84.0314C131.446 84.0314 130.219 85.3278 130.219 87.2167C130.219 89.1155 131.48 90.4008 133.32 90.4008C134.081 90.4008 134.808 90.1395 135.352 89.6959L135.739 90.4239Z" fill="#191716"/>
<path d="M143.943 85.203C143.943 84.0541 144.83 83.1207 146.34 83.1207C147.259 83.1207 148.077 83.451 148.532 83.9516L148.01 84.6796C147.59 84.2588 147.089 84.0314 146.397 84.0314C145.511 84.0314 144.965 84.4969 144.965 85.203C144.965 87.1708 148.85 86.4316 148.85 89.1502C148.85 90.4579 147.703 91.3115 146.26 91.3115C145.283 91.3115 144.148 90.8675 143.75 90.1168L144.306 89.4574C144.772 90.0717 145.601 90.4008 146.272 90.4008C147.1 90.4008 147.827 89.9692 147.827 89.1614C147.827 87.2167 143.943 87.8418 143.943 85.203Z" fill="#191716"/>
<path d="M162.108 85.203C162.108 84.0541 162.994 83.1207 164.505 83.1207C165.425 83.1207 166.243 83.451 166.697 83.9516L166.174 84.6796C165.754 84.2588 165.255 84.0314 164.561 84.0314C163.675 84.0314 163.131 84.4969 163.131 85.203C163.131 87.1708 167.015 86.4316 167.015 89.1502C167.015 90.4579 165.868 91.3115 164.425 91.3115C163.448 91.3115 162.313 90.8675 161.914 90.1168L162.471 89.4574C162.937 90.0717 163.767 90.4008 164.436 90.4008C165.266 90.4008 165.993 89.9692 165.993 89.1614C165.993 87.2167 162.108 87.8418 162.108 85.203Z" fill="#191716"/>
<path d="M181.217 87.5917H176.843V91.1978H175.879V83.2343H176.843V86.6809H181.217V83.2343H182.181V91.1978H181.217V87.5917Z" fill="#191716"/>
<path d="M195.099 90.4008C196.917 90.4008 198.133 89.0138 198.133 87.2167C198.133 85.3618 196.803 84.0314 195.099 84.0314C193.374 84.0314 192.068 85.3618 192.068 87.2167C192.068 89.0246 193.397 90.4008 195.099 90.4008ZM195.099 83.1207C197.406 83.1207 199.155 84.7933 199.155 87.2167C199.155 89.5822 197.406 91.3115 195.099 91.3115C192.795 91.3115 191.045 89.6389 191.045 87.2167C191.045 84.907 192.738 83.1207 195.099 83.1207Z" fill="#191716"/>
<path d="M208.983 84.1451V87.2167C209.37 87.2506 209.744 87.2733 210.142 87.2733C211.311 87.2733 212.016 86.6702 212.016 85.6689C212.016 84.7255 211.448 84.1219 210.187 84.1219C209.87 84.1219 209.359 84.1331 208.983 84.1451ZM208.018 91.1978V83.2343C208.46 83.2343 209.596 83.2124 210.096 83.2124C212.368 83.2124 213.038 84.4403 213.038 85.6809C213.038 86.9773 212.118 88.1829 210.176 88.1829C209.857 88.1829 209.38 88.1721 208.983 88.137V91.1978H208.018Z" fill="#191716"/>
</svg>
